<svg width="131" height="90" viewBox="0 0 131 90" fill="none" xmlns="http://www.w3.org/2000/svg">
<path d="M90.1562 38.7969H87.7578V43.2812H82.9609V38.7969H80.5547V50H82.9609V45.4375H87.7578V50H90.1562V38.7969ZM94.8828 44.4062C94.8828 43.375 95.2266 42.5 95.9297 41.7891C96.625 41.0781 97.4766 40.7188 98.4766 40.7188C99.4766 40.7188 100.328 41.0781 101.023 41.7891C101.727 42.5 102.07 43.375 102.07 44.4062C102.07 45.4375 101.727 46.3125 101.023 47.0156C100.328 47.7266 99.4766 48.0781 98.4766 48.0781C97.4766 48.0781 96.625 47.7266 95.9297 47.0156C95.2266 46.3125 94.8828 45.4375 94.8828 44.4062ZM92.3984 44.3984C92.3984 46.0078 92.9844 47.3906 94.1562 48.5312C95.3281 49.6719 96.7734 50.2422 98.4766 50.2422C100.18 50.2422 101.625 49.6719 102.797 48.5312C103.969 47.3906 104.555 46.0078 104.555 44.3984C104.555 42.7891 103.969 41.4141 102.797 40.2734C101.625 39.1328 100.18 38.5625 98.4766 38.5625C96.7734 38.5625 95.3281 39.1328 94.1562 40.2734C92.9844 41.4141 92.3984 42.7891 92.3984 44.3984ZM112.805 43.6797L108.969 38.7969H106.805V50H109.211V42.5625L112.805 47.1172L116.406 42.5312V50H118.805V38.7969H116.68L112.805 43.6797ZM124.086 47.8438V45.3594H128.641V43.2031H124.086V40.9609H129.922V38.7969H121.68V50H130.086V47.8438H124.086Z" fill="#707C97"/>
<path fill-rule="evenodd" clip-rule="evenodd" d="M53 52V48H57L57.001 52H53ZM57 46H53C51.897 46 51 46.897 51 48V52C51 53.103 51.897 54 53 54H57C58.103 54 59 53.103 59 52V48C59 46.897 58.103 46 57 46ZM43 52V48H47L47.001 52H43ZM47 46H43C41.897 46 41 46.897 41 48V52C41 53.103 41.897 54 43 54H47C48.103 54 49 53.103 49 52V48C49 46.897 48.103 46 47 46ZM53 42V38H57L57.001 42H53ZM57 36H53C51.897 36 51 36.897 51 38V42C51 43.103 51.897 44 53 44H57C58.103 44 59 43.103 59 42V38C59 36.897 58.103 36 57 36ZM43 42V38H47L47.001 42H43ZM47 36H43C41.897 36 41 36.897 41 38V42C41 43.103 41.897 44 43 44H47C48.103 44 49 43.103 49 42V38C49 36.897 48.103 36 47 36Z" fill="#231F20"/>
<mask id="mask0" mask-type="alpha" maskUnits="userSpaceOnUse" x="41" y="36" width="18" height="18">
<path fill-rule="evenodd" clip-rule="evenodd" d="M53 52V48H57L57.001 52H53ZM57 46H53C51.897 46 51 46.897 51 48V52C51 53.103 51.897 54 53 54H57C58.103 54 59 53.103 59 52V48C59 46.897 58.103 46 57 46ZM43 52V48H47L47.001 52H43ZM47 46H43C41.897 46 41 46.897 41 48V52C41 53.103 41.897 54 43 54H47C48.103 54 49 53.103 49 52V48C49 46.897 48.103 46 47 46ZM53 42V38H57L57.001 42H53ZM57 36H53C51.897 36 51 36.897 51 38V42C51 43.103 51.897 44 53 44H57C58.103 44 59 43.103 59 42V38C59 36.897 58.103 36 57 36ZM43 42V38H47L47.001 42H43ZM47 36H43C41.897 36 41 36.897 41 38V42C41 43.103 41.897 44 43 44H47C48.103 44 49 43.103 49 42V38C49 36.897 48.103 36 47 36Z" fill="white"/>
</mask>
<g mask="url(#mask0)">
<rect x="38" y="33" width="24" height="24" fill="#707C97"/>
</g>
<g filter="url(#filter0_ddd)">
<rect y="25" width="3" height="40" rx="1.5" fill="#2A8BF2"/>
</g>
<defs>
<filter id="filter0_ddd" x="-21" y="0" width="53" height="90" filterUnits="userSpaceOnUse" color-interpolation-filters="sRGB">
<feFlood flood-opacity="0" result="BackgroundImageFix"/>
<feColorMatrix in="SourceAlpha" type="matrix" values="0 0 0 0 0 0 0 0 0 0 0 0 0 0 0 0 0 0 127 0"/>
<feOffset dx="4"/>
<feGaussianBlur stdDeviation="12.5"/>
<feColorMatrix type="matrix" values="0 0 0 0 0.164706 0 0 0 0 0.545098 0 0 0 0 0.94902 0 0 0 0.25 0"/>
<feBlend mode="normal" in2="BackgroundImageFix" result="effect1_dropShadow"/>
<feColorMatrix in="SourceAlpha" type="matrix" values="0 0 0 0 0 0 0 0 0 0 0 0 0 0 0 0 0 0 127 0"/>
<feOffset/>
<feGaussianBlur stdDeviation="5"/>
<feColorMatrix type="matrix" values="0 0 0 0 0.164706 0 0 0 0 0.545098 0 0 0 0 0.94902 0 0 0 0.25 0"/>
<feBlend mode="normal" in2="effect1_dropShadow" result="effect2_dropShadow"/>
<feColorMatrix in="SourceAlpha" type="matrix" values="0 0 0 0 0 0 0 0 0 0 0 0 0 0 0 0 0 0 127 0"/>
<feOffset dx="1"/>
<feGaussianBlur stdDeviation="5"/>
<feColorMatrix type="matrix" values="0 0 0 0 0.164706 0 0 0 0 0.545098 0 0 0 0 0.94902 0 0 0 0.25 0"/>
<feBlend mode="normal" in2="effect2_dropShadow" result="effect3_dropShadow"/>
<feBlend mode="normal" in="SourceGraphic" in2="effect3_dropShadow" result="shape"/>
</filter>
</defs>
</svg>