<svg width="154" height="40" viewBox="0 0 154 40" fill="none" xmlns="http://www.w3.org/2000/svg">
<path d="M87.4766 25V22.8438H82.2812V13.7969H79.875V25H87.4766ZM91.1562 19.4062C91.1562 18.375 91.5 17.5 92.2031 16.7891C92.8984 16.0781 93.75 15.7188 94.75 15.7188C95.75 15.7188 96.6016 16.0781 97.2969 16.7891C98 17.5 98.3438 18.375 98.3438 19.4062C98.3438 20.4375 98 21.3125 97.2969 22.0156C96.6016 22.7266 95.75 23.0781 94.75 23.0781C93.75 23.0781 92.8984 22.7266 92.2031 22.0156C91.5 21.3125 91.1562 20.4375 91.1562 19.4062ZM88.6719 19.3984C88.6719 21.0078 89.2578 22.3906 90.4297 23.5312C91.6016 24.6719 93.0469 25.2422 94.75 25.2422C96.4531 25.2422 97.8984 24.6719 99.0703 23.5312C100.242 22.3906 100.828 21.0078 100.828 19.3984C100.828 17.7891 100.242 16.4141 99.0703 15.2734C97.8984 14.1328 96.4531 13.5625 94.75 13.5625C93.0469 13.5625 91.6016 14.1328 90.4297 15.2734C89.2578 16.4141 88.6719 17.7891 88.6719 19.3984ZM109 18.9219V20.6797H111V22.2031L110.758 22.4062C110.586 22.5625 110.297 22.7109 109.891 22.8594C109.477 23.0078 109.023 23.0781 108.523 23.0781C107.477 23.0781 106.602 22.7266 105.898 22.0234C105.195 21.3203 104.844 20.4453 104.844 19.3984C104.844 18.3516 105.195 17.4766 105.898 16.7734C106.602 16.0703 107.477 15.7188 108.523 15.7188C108.898 15.7188 109.273 15.7812 109.641 15.8984C110 16.0156 110.297 16.1406 110.523 16.2812C110.742 16.4219 110.953 16.5781 111.141 16.7578C111.328 16.9453 111.453 17.0703 111.508 17.1484C111.562 17.2266 111.609 17.2812 111.641 17.3203L113.164 15.7969L112.984 15.5625C112.867 15.4141 112.68 15.2266 112.414 15.0078C112.148 14.7891 111.852 14.5703 111.508 14.3516C111.164 14.1328 110.734 13.9531 110.203 13.7969C109.672 13.6406 109.109 13.5625 108.523 13.5625C106.812 13.5625 105.367 14.1328 104.195 15.2734C103.023 16.4141 102.438 17.7891 102.438 19.3984C102.438 21.0078 103.023 22.3906 104.195 23.5312C105.367 24.6719 106.812 25.2422 108.523 25.2422C109.117 25.2422 109.688 25.1641 110.25 25.0078C110.812 24.8516 111.266 24.6797 111.609 24.4922C111.953 24.3047 112.281 24.0859 112.594 23.8359C112.906 23.5859 113.102 23.4141 113.195 23.3125C113.289 23.2109 113.352 23.1328 113.398 23.0781V18.9219H109ZM121.156 19.4062C121.156 18.375 121.5 17.5 122.203 16.7891C122.898 16.0781 123.75 15.7188 124.75 15.7188C125.75 15.7188 126.602 16.0781 127.297 16.7891C128 17.5 128.344 18.375 128.344 19.4062C128.344 20.4375 128 21.3125 127.297 22.0156C126.602 22.7266 125.75 23.0781 124.75 23.0781C123.75 23.0781 122.898 22.7266 122.203 22.0156C121.5 21.3125 121.156 20.4375 121.156 19.4062ZM118.672 19.3984C118.672 21.0078 119.258 22.3906 120.43 23.5312C121.602 24.6719 123.047 25.2422 124.75 25.2422C126.453 25.2422 127.898 24.6719 129.07 23.5312C130.242 22.3906 130.828 21.0078 130.828 19.3984C130.828 17.7891 130.242 16.4141 129.07 15.2734C127.898 14.1328 126.453 13.5625 124.75 13.5625C123.047 13.5625 121.602 14.1328 120.43 15.2734C119.258 16.4141 118.672 17.7891 118.672 19.3984ZM137.883 23.0781C137.195 23.0781 136.609 22.8281 136.125 22.3203C135.641 21.8125 135.398 21.1875 135.398 20.4375V13.7969H133V20.4375C133 21.8047 133.461 22.9453 134.391 23.8672C135.312 24.7891 136.477 25.25 137.875 25.25C139.273 25.25 140.438 24.7891 141.367 23.8672C142.289 22.9453 142.758 21.8047 142.758 20.4375V13.7969H140.359V20.4375C140.359 21.1875 140.117 21.8203 139.633 22.3203C139.148 22.8281 138.562 23.0781 137.883 23.0781ZM144.445 13.7969V15.9609H147.648V25H150.047V15.9609H153.242V13.7969H144.445Z" fill="#707C97"/>
<path fill-rule="evenodd" clip-rule="evenodd" d="M51 20C51 20.553 50.552 21 50 21C49.448 21 49 20.553 49 20V10C49 9.447 49.448 9 50 9C50.552 9 51 9.447 51 10V20ZM53.2389 11.5413C53.4919 11.0503 54.0959 10.8593 54.5859 11.1113C57.9249 12.8383 59.9999 16.2433 59.9999 20.0003C59.9999 25.5133 55.5139 30.0003 49.9999 30.0003C44.4859 30.0003 39.9999 25.5133 39.9999 20.0003C39.9999 16.2433 42.0749 12.8383 45.4149 11.1113C45.9039 10.8583 46.5079 11.0493 46.7619 11.5413C47.0159 12.0313 46.8229 12.6343 46.3329 12.8883C43.6599 14.2693 41.9999 16.9943 41.9999 20.0003C41.9999 24.4113 45.5889 28.0003 49.9999 28.0003C54.4109 28.0003 57.9999 24.4113 57.9999 20.0003C57.9999 16.9943 56.3399 14.2693 53.6679 12.8883C53.1769 12.6343 52.9849 12.0313 53.2389 11.5413Z" fill="#231F20"/>
<mask id="mask0" mask-type="alpha" maskUnits="userSpaceOnUse" x="39" y="9" width="21" height="22">
<path fill-rule="evenodd" clip-rule="evenodd" d="M51 20C51 20.553 50.552 21 50 21C49.448 21 49 20.553 49 20V10C49 9.447 49.448 9 50 9C50.552 9 51 9.447 51 10V20ZM53.2389 11.5413C53.4919 11.0503 54.0959 10.8593 54.5859 11.1113C57.9249 12.8383 59.9999 16.2433 59.9999 20.0003C59.9999 25.5133 55.5139 30.0003 49.9999 30.0003C44.4859 30.0003 39.9999 25.5133 39.9999 20.0003C39.9999 16.2433 42.0749 12.8383 45.4149 11.1113C45.9039 10.8583 46.5079 11.0493 46.7619 11.5413C47.0159 12.0313 46.8229 12.6343 46.3329 12.8883C43.6599 14.2693 41.9999 16.9943 41.9999 20.0003C41.9999 24.4113 45.5889 28.0003 49.9999 28.0003C54.4109 28.0003 57.9999 24.4113 57.9999 20.0003C57.9999 16.9943 56.3399 14.2693 53.6679 12.8883C53.1769 12.6343 52.9849 12.0313 53.2389 11.5413Z" fill="white"/>
</mask>
<g mask="url(#mask0)">
<rect x="38" y="8" width="24" height="24" fill="#707C97"/>
</g>
</svg>