<svg width="489" height="490" viewBox="0 0 489 490" fill="none" xmlns="http://www.w3.org/2000/svg">
<g filter="url(#filter0_d)">
<path d="M402.774 140.228C404.173 142.191 405.079 143.46 402.748 140.192C397.342 132.612 400.562 137.125 402.717 140.147C387.563 118.969 351.92 117.049 338.653 141.62C333.115 151.874 333.027 163.56 330.563 174.682C327.654 187.795 312.409 203.313 297.756 199.721C304.981 191.557 312.434 185.519 316.959 175.228C321.39 165.149 323.556 150.901 315.033 142.263C307.834 134.966 295.011 133.327 285.918 137.671C275.423 142.679 273.557 152.789 272.827 163.286C271.948 175.838 269.311 182.561 255.764 183.635C246.658 184.357 229.883 182.628 228.035 171.28C226.108 159.52 231.787 146.463 235.575 135.555C240.115 122.48 245.868 109.976 245.411 95.8236C244.582 70.3796 227.376 50.1353 200.607 52.7327C174.357 55.2792 164.611 80.0141 172.839 103.115C176.876 114.462 185.301 122.517 190.634 133.028C197.257 146.095 198.391 161.09 198.383 175.486C198.368 186.144 194.019 198.627 184.099 204.239C173.211 210.398 165.101 201.458 161.454 192.187C155.678 177.496 145.267 164.531 128.313 172.875C118.082 177.916 111.919 188.043 111.511 199.425C111.057 212.168 119.136 220.563 128.569 227.869C133.371 231.59 145.475 238.437 145.981 245.441C146.836 257.249 121.139 248.954 116.858 247.039C105.128 241.792 93.5023 237.402 80.6558 242.02C68.7786 246.29 59.2416 257.905 56.1782 270.027C49.5559 296.201 72.8646 317.601 96.8001 321.72C123.604 326.331 141.518 304.776 166.302 299.08C171.169 297.961 186.497 294.861 185.897 303.978C185.108 315.984 173.773 324.507 164.651 330.551C155.172 336.831 146.349 343.85 144.046 355.703C141.733 367.612 148.018 379.151 157.78 385.709C176.615 398.368 204.627 397.535 216.7 376.186C222.097 366.636 222.716 355.893 223.682 345.229C223.93 342.475 223.833 333.399 228.577 334.231C235.821 335.505 232.265 344.998 230.653 349.186C222.201 371.2 238.777 395.565 263.042 383.627C271.503 379.462 276.501 371.298 275.651 361.814C274.629 350.381 264.933 337.335 276.264 327.848C285.475 320.147 288.915 342.127 289.659 347.189C291.579 360.262 295.106 373.155 301.955 384.562C314.917 406.157 344.927 415.776 361.259 391.756C375.658 370.582 367.575 342.427 344.703 331.679C334.739 326.991 294.181 320.162 311.157 302.029C328.48 283.518 377.082 306.595 378.797 271.053C379.286 260.852 372.216 251.701 362.303 249.513C355.345 247.98 348.172 249.742 341.673 252.269C338.079 253.67 329.751 259.484 326.75 254.95C313.907 235.517 347.453 207.532 363.185 202.699C377.787 198.215 392.922 197.374 402.783 183.947C412.344 170.929 412.044 153.268 402.774 140.228ZM86.2964 267.195C78.4184 269.528 72.6663 273.561 70.9224 267.67C69.1792 261.778 74.1546 255.115 82.031 252.783C89.911 250.454 97.7093 253.335 99.4508 259.227C101.195 265.119 94.1745 264.862 86.2964 267.195ZM138.21 185.951C133.486 187.346 130.036 189.765 128.988 186.235C127.944 182.697 130.926 178.701 135.656 177.305C140.379 175.905 145.06 177.636 146.102 181.169C147.152 184.703 142.94 184.549 138.21 185.951ZM180.807 379.143C174.819 382.639 166.183 378.982 161.51 370.977C156.833 362.973 157.896 353.657 163.883 350.159C169.863 346.664 171.476 354.422 176.148 362.427C180.824 370.432 186.788 375.65 180.807 379.143ZM202.206 79.7189C193.173 81.7949 186.418 85.9347 184.866 79.1812C183.314 72.4259 189.376 65.2715 198.409 63.1954C207.442 61.1194 216.024 64.9085 217.577 71.6638C219.128 78.4175 211.24 77.6428 202.206 79.7189ZM328.981 369.124C333.657 377.126 339.62 382.346 333.638 385.838C327.65 389.333 319.014 385.676 314.344 377.672C309.666 369.671 310.728 360.351 316.714 356.855C322.696 353.362 324.308 361.12 328.981 369.124ZM367.183 149.23C358.296 151.857 351.805 156.41 349.839 149.766C347.875 143.12 353.486 135.6 362.371 132.973C371.258 130.34 380.056 133.596 382.022 140.241C383.989 146.886 376.071 146.602 367.183 149.23Z" fill="#6441A5"/>
</g>
<defs>
<filter id="filter0_d" x="0" y="0" width="488.415" height="489.788" filterUnits="userSpaceOnUse" color-interpolation-filters="sRGB">
<feFlood flood-opacity="0" result="BackgroundImageFix"/>
<feColorMatrix in="SourceAlpha" type="matrix" values="0 0 0 0 0 0 0 0 0 0 0 0 0 0 0 0 0 0 127 0"/>
<feOffset dx="8" dy="8"/>
<feGaussianBlur stdDeviation="10"/>
<feColorMatrix type="matrix" values="0 0 0 0 0 0 0 0 0 0 0 0 0 0 0 0 0 0 0.7 0"/>
<feBlend mode="normal" in2="BackgroundImageFix" result="effect1_dropShadow"/>
<feBlend mode="normal" in="SourceGraphic" in2="effect1_dropShadow" result="shape"/>
</filter>
</defs>
</svg>
