<svg width="252" height="112" viewBox="0 0 252 112" fill="none" xmlns="http://www.w3.org/2000/svg">
<g filter="url(#filter0_d)">
<path d="M216.273 -71.3449C217.033 -70.2788 217.525 -69.5895 216.26 -71.3647C213.322 -75.4819 215.072 -73.0307 216.242 -71.3891C208.01 -82.8933 188.649 -83.9361 181.442 -70.5886C178.434 -65.0187 178.386 -58.6707 177.047 -52.6293C175.467 -45.5058 167.186 -37.0762 159.227 -39.0274C163.151 -43.4624 167.199 -46.7425 169.658 -52.3324C172.065 -57.8074 173.241 -65.5474 168.611 -70.2395C164.701 -74.2031 157.735 -75.0937 152.796 -72.7339C147.095 -70.0136 146.081 -64.5215 145.684 -58.8195C145.207 -52.0013 143.775 -48.3489 136.416 -47.7659C131.469 -47.3736 122.357 -48.3124 121.353 -54.4771C120.306 -60.8653 123.391 -67.9578 125.449 -73.8836C127.915 -80.9861 131.04 -87.778 130.792 -95.4659C130.341 -109.287 120.995 -120.284 106.454 -118.873C92.1941 -117.49 86.9003 -104.054 91.3697 -91.5051C93.5627 -85.3414 98.1394 -80.9658 101.036 -75.2559C104.634 -68.1578 105.25 -60.0123 105.245 -52.1925C105.238 -46.403 102.875 -39.6217 97.4864 -36.5733C91.5717 -33.2277 87.1665 -38.0837 85.1853 -43.1204C82.0479 -51.1007 76.3922 -58.1435 67.1828 -53.6108C61.6251 -50.8721 58.2775 -45.371 58.0556 -39.1883C57.809 -32.2662 62.1975 -27.7061 67.3216 -23.7373C69.9305 -21.7159 76.5053 -17.9967 76.7801 -14.1919C77.2445 -7.7777 63.2855 -12.2837 60.9601 -13.324C54.5885 -16.1742 48.2731 -18.5588 41.2947 -16.05C34.8428 -13.7308 29.6622 -7.42127 27.9981 -0.836514C24.4008 13.3817 37.0624 25.0065 50.0645 27.2436C64.6246 29.7486 74.356 18.0394 87.8189 14.9454C90.4629 14.3377 98.7888 12.6535 98.4632 17.6064C98.0345 24.1278 91.877 28.7579 86.9221 32.0409C81.7731 35.4525 76.9801 39.2654 75.7291 45.7039C74.4729 52.1731 77.8869 58.4409 83.1895 62.0033C93.4209 68.8802 108.637 68.4274 115.196 56.8306C118.128 51.643 118.464 45.8071 118.989 40.0141C119.123 38.5183 119.07 33.5883 121.647 34.0398C125.582 34.732 123.651 39.8888 122.775 42.1638C118.184 54.122 127.188 67.3572 140.369 60.8726C144.965 58.61 147.68 54.175 147.218 49.0235C146.663 42.8131 141.396 35.7262 147.551 30.5728C152.555 26.3893 154.424 38.3294 154.828 41.079C155.871 48.1803 157.787 55.1842 161.507 61.3801C168.548 73.1112 184.85 78.3363 193.722 65.2882C201.543 53.7862 197.153 38.4922 184.728 32.6534C179.316 30.1071 157.285 26.3974 166.506 16.5474C175.916 6.49181 202.317 19.0277 203.249 -0.279172C203.515 -5.82048 199.674 -10.7916 194.289 -11.9798C190.509 -12.8124 186.613 -11.8554 183.083 -10.4827C181.13 -9.72152 176.606 -6.56333 174.976 -9.02663C168 -19.5825 186.222 -34.7843 194.768 -37.41C202.7 -39.8456 210.922 -40.3027 216.278 -47.5963C221.472 -54.6675 221.309 -64.2613 216.273 -71.3449ZM44.3587 -2.37491C40.0793 -1.10738 36.9547 1.0833 36.0074 -2.11671C35.0604 -5.31732 37.7632 -8.93697 42.0417 -10.2038C46.3222 -11.4686 50.5584 -9.90397 51.5044 -6.70313C52.4518 -3.50264 48.6382 -3.64196 44.3587 -2.37491ZM72.5591 -46.5078C69.9929 -45.7499 68.1185 -44.436 67.5493 -46.3534C66.9822 -48.275 68.6022 -50.4461 71.1714 -51.2042C73.737 -51.9646 76.2798 -51.0245 76.8459 -49.1053C77.4161 -47.1855 75.1281 -47.269 72.5591 -46.5078ZM95.6982 58.4365C92.4456 60.3359 87.7542 58.349 85.2158 54.001C82.6753 49.6528 83.2526 44.5922 86.5046 42.6924C89.7533 40.7939 90.6292 45.0077 93.1673 49.3564C95.7073 53.7047 98.9472 56.5394 95.6982 58.4365ZM107.323 -104.214C102.416 -103.087 98.7463 -100.838 97.9032 -104.506C97.0599 -108.176 100.353 -112.062 105.26 -113.19C110.167 -114.318 114.828 -112.259 115.672 -108.59C116.514 -104.921 112.23 -105.342 107.323 -104.214ZM176.188 52.9945C178.728 57.3411 181.968 60.1764 178.718 62.0737C175.465 63.9721 170.774 61.9857 168.237 57.6378C165.696 53.2913 166.273 48.2288 169.524 46.3296C172.774 44.4324 173.65 48.6463 176.188 52.9945ZM196.94 -66.4551C192.112 -65.0281 188.586 -62.5546 187.518 -66.1639C186.451 -69.7739 189.499 -73.8591 194.326 -75.2859C199.153 -76.716 203.933 -74.9475 205.001 -71.3377C206.069 -67.7285 201.768 -67.8823 196.94 -66.4551Z" fill="#6441A5"/>
</g>
<defs>
<filter id="filter0_d" x="0" y="-141" width="251.585" height="252.331" filterUnits="userSpaceOnUse" color-interpolation-filters="sRGB">
<feFlood flood-opacity="0" result="BackgroundImageFix"/>
<feColorMatrix in="SourceAlpha" type="matrix" values="0 0 0 0 0 0 0 0 0 0 0 0 0 0 0 0 0 0 127 0"/>
<feOffset dy="4"/>
<feGaussianBlur stdDeviation="2"/>
<feColorMatrix type="matrix" values="0 0 0 0 0 0 0 0 0 0 0 0 0 0 0 0 0 0 0.5 0"/>
<feBlend mode="normal" in2="BackgroundImageFix" result="effect1_dropShadow"/>
<feBlend mode="normal" in="SourceGraphic" in2="effect1_dropShadow" result="shape"/>
</filter>
</defs>
</svg>
